<?xml version="1.0" encoding="UTF-8" standalone="no"?>
<!DOCTYPE svg PUBLIC "-//W3C//DTD SVG 1.1//EN" "http://www.w3.org/Graphics/SVG/1.1/DTD/svg11.dtd">
<svg width="100%" height="100%" viewBox="0 0 100 100" version="1.1" xmlns="http://www.w3.org/2000/svg" xmlns:xlink="http://www.w3.org/1999/xlink" xml:space="preserve" xmlns:serif="http://www.serif.com/" style="fill-rule:evenodd;clip-rule:evenodd;stroke-linejoin:round;stroke-miterlimit:2;">
    <g transform="matrix(1.05263,0,0,1.05263,-2.63158,-2.63158)">
        <path d="M97.5,50C97.5,23.8 76.2,2.5 50,2.5C23.8,2.5 2.5,23.8 2.5,50C2.5,76.2 23.8,97.5 50,97.5C76.2,97.5 97.5,76.2 97.5,50ZM46.3,75.6L30.4,59.7C29.4,58.7 28.9,57.4 28.9,56C28.9,54.6 29.4,53.3 30.4,52.3C32.4,50.3 35.7,50.3 37.8,52.3L44.8,59.3L44.8,28C44.8,25.1 47.1,22.8 50,22.8C52.9,22.8 55.2,25.1 55.2,28L55.2,59.4L62.2,52.4C64.2,50.4 67.5,50.4 69.6,52.4C71.6,54.4 71.6,57.7 69.6,59.8L53.7,75.6C51.6,77.7 48.4,77.7 46.3,75.6Z" style="fill:#ff6694;fill-rule:nonzero;"/>
    </g>
</svg>
