<?xml version="1.0" encoding="UTF-8" standalone="no"?>
<!DOCTYPE svg PUBLIC "-//W3C//DTD SVG 1.1//EN" "http://www.w3.org/Graphics/SVG/1.1/DTD/svg11.dtd">
<svg width="100%" height="100%" viewBox="0 0 200 200" version="1.1" xmlns="http://www.w3.org/2000/svg" xmlns:xlink="http://www.w3.org/1999/xlink" xml:space="preserve" xmlns:serif="http://www.serif.com/" style="fill-rule:evenodd;clip-rule:evenodd;stroke-linejoin:round;stroke-miterlimit:2;">
    <path d="M188.358,198.409C189.568,193.489 190.781,188.269 190.926,182.638C191.242,170.213 187.623,156.956 185.979,144.117C190.78,149.016 194.674,154.664 199.641,159.422L199.63,200L188.358,198.409ZM121.824,105.484L148.67,105.528C149.423,109.821 150.621,113.658 152.322,116.645C156.164,123.397 162.122,131.031 167.018,138.22C171.665,145.034 174.991,169.016 174.79,176.748C174.61,183.792 172.879,189.778 171.542,196.036L134.762,190.845C134.216,186.024 133.481,181.437 132.739,176.998C129.315,156.626 120.484,133.042 121.119,115.973C121.222,113.207 121.172,109.583 121.824,105.484ZM117.967,105.478C117.506,109.138 117.535,112.377 117.443,114.911C116.81,132.378 125.637,156.513 129.054,177.354C129.77,181.718 130.478,185.956 131.019,190.317L91.591,184.752L91.44,105.434L117.967,105.478ZM47.244,104.649L81.714,104.873L81.778,183.537L41.839,178.046C42.061,176.641 42.294,175.233 42.528,173.808C45.246,157.226 52.269,138.024 51.766,124.127C51.601,119.608 51.925,112.27 47.244,104.649ZM27.414,104.52L43.444,104.624C49.04,112.531 48.667,120.294 48.841,124.972C49.346,138.552 42.32,157.316 39.596,173.525C39.37,174.879 39.144,176.251 38.928,177.645L6.136,173.137C6.033,166.793 8.663,148.039 12.323,142.672C16.218,136.952 20.959,130.878 24.016,125.507C26.487,121.164 27.626,114.568 27.704,107.627C27.718,106.521 27.613,105.487 27.414,104.52ZM199.655,105.612L199.649,130.374C192.323,122.918 183.789,115.775 179.599,107.381C179.317,106.816 179.074,106.214 178.861,105.578L199.655,105.612ZM4.964,104.374C3.948,109.277 4.064,114.629 2.314,118.136C1.745,119.274 1.076,120.384 0.33,121.47L0.329,104.344L4.964,104.374ZM9.083,96.23L0.345,96.28L0.269,28.318L81.752,17.219L81.789,95.816L39.539,96.057C38.464,95.186 37.293,94.324 36.016,93.474C41.723,88.305 32.451,83.445 69.184,73.702C57.798,71.602 49.515,76.481 35.252,76.3C30.768,76.3 26.867,74.927 22.762,76.424C18.995,77.795 17.505,79.421 15.795,82.481C13.468,86.641 13.699,87.889 12.39,92.335C11.584,93.102 10.312,94.604 9.083,96.23ZM22.459,96.154C20.17,94.005 18.16,93.003 18.926,92.846L24.365,92.674C27.949,92.564 30.581,93.559 33.091,95.02C33.634,95.373 34.158,95.728 34.662,96.085L22.459,96.154ZM120.562,95.448L92.295,95.674L92.295,15.769L199.731,0L199.731,94.817L177.047,94.998C176.697,92.221 176.26,89.404 175.409,86.802C174.51,84.033 169.224,77.132 166.935,74.952C165.289,69.364 165.579,67.796 162.654,62.567C160.505,58.72 158.632,56.677 153.897,54.953C148.738,53.073 143.835,54.798 138.199,54.798C120.272,55.025 109.862,48.893 95.55,51.533C141.72,63.779 130.065,69.886 137.239,76.384C128.026,82.513 123.157,89.187 120.562,95.448ZM124.936,95.414C127.675,89.75 132.47,83.815 140.915,78.327C144.07,76.49 147.379,75.24 151.882,75.379L158.719,75.594C160.73,76.007 147.521,81.052 147.685,94.173C147.689,94.527 147.696,94.881 147.704,95.232L124.936,95.414Z" style="fill:#ff6694;fill-rule:nonzero;"/>
</svg>
