<?xml version="1.0" encoding="UTF-8" standalone="no"?>
<!DOCTYPE svg PUBLIC "-//W3C//DTD SVG 1.1//EN" "http://www.w3.org/Graphics/SVG/1.1/DTD/svg11.dtd">
<svg width="100%" height="100%" viewBox="0 0 200 200" version="1.1" xmlns="http://www.w3.org/2000/svg" xmlns:xlink="http://www.w3.org/1999/xlink" xml:space="preserve" xmlns:serif="http://www.serif.com/" style="fill-rule:evenodd;clip-rule:evenodd;stroke-linejoin:round;stroke-miterlimit:2;">
    <path d="M187.208,198.247C188.16,193.957 188.933,189.467 189.056,184.726C189.423,170.278 185.214,154.864 183.303,139.937C189.03,145.78 193.648,152.539 199.641,158.159L199.63,200L187.208,198.247ZM107.922,105.461L142.919,105.519C143.304,106.39 143.717,107.217 144.16,107.995C148.628,115.845 155.558,124.721 161.251,133.08C166.656,141.003 170.524,168.887 170.29,177.878C170.127,184.246 168.874,189.871 167.593,195.479L123.1,189.199C122.579,185.418 121.984,181.752 121.386,178.168C117.403,154.481 107.133,127.06 107.871,107.213C107.892,106.658 107.907,106.073 107.922,105.461ZM103.613,105.454C103.608,105.632 103.602,105.806 103.596,105.978C102.86,126.287 113.126,154.349 117.1,178.582C117.652,181.95 118.201,185.253 118.691,188.577L91.591,184.752L91.44,105.434L103.613,105.454ZM73.753,104.821L81.714,104.873L81.778,183.537L62.009,180.819C62.417,178.029 62.877,175.259 63.341,172.433C66.552,152.846 74.848,130.163 74.253,113.747C74.165,111.352 74.194,108.287 73.753,104.821ZM44.956,104.634L70.121,104.798C70.749,108.687 70.701,112.126 70.798,114.745C71.395,130.788 63.095,152.952 59.877,172.099C59.429,174.784 58.983,177.527 58.585,180.348L20.556,175.12C20.454,174.06 20.385,172.976 20.356,171.864C20.168,164.596 23.293,142.058 27.661,135.654C32.262,128.897 37.862,121.723 41.473,115.377C43.11,112.501 44.252,108.787 44.956,104.634ZM0.332,152.105C3.546,148.507 6.453,144.653 9.841,141.196C8.488,151.764 5.711,162.633 5.242,173.014L0.334,172.339L0.332,152.105ZM16.697,104.45C16.46,105.242 16.179,105.986 15.837,106.67C12.522,113.31 6.316,119.116 0.33,124.967L0.329,104.344L16.697,104.45ZM199.655,105.612L199.65,124.418C193.549,118.16 186.658,112.109 181.393,105.582L199.655,105.612ZM18.095,96.179L0.345,96.28L0.269,28.318L81.752,17.219L81.789,95.816L71.492,95.875C69.096,89.868 64.511,83.435 55.648,77.539C60.955,72.732 49.722,76.494 59.687,65.282C62.528,62.087 69.129,57.894 78.368,55.443C64.918,52.962 71.594,57.465 54.746,57.252C49.449,57.252 44.841,55.63 39.992,57.398C35.542,59.017 33.782,60.938 31.762,64.553C29.014,69.467 29.286,70.941 27.739,76.193C25.588,78.242 20.62,84.728 19.774,87.33C18.857,90.134 18.453,93.203 18.095,96.179ZM45.79,96.021C45.81,95.436 45.823,94.847 45.83,94.257C45.985,81.926 33.57,77.185 35.461,76.797L41.886,76.594C46.118,76.464 49.228,77.638 52.193,79.365C60.365,84.675 64.901,90.432 67.436,95.898L45.79,96.021ZM104.137,95.579L92.295,95.674L92.295,15.769L199.731,0L199.731,94.817L174.988,95.015C172.995,88.953 173.345,80.431 171.01,73.296C169.964,70.076 163.817,62.052 161.154,59.518C159.24,53.019 159.577,51.196 156.176,45.116C153.677,40.644 151.498,38.268 145.992,36.264C139.992,34.078 134.29,36.084 127.735,36.084C106.886,36.348 115.148,30.777 98.504,33.847C109.937,36.878 118.105,42.065 121.62,46.019C133.952,59.889 120.052,55.236 126.619,61.182C109.543,72.539 105.3,85.505 104.137,95.579ZM108.611,95.544C110.033,85.934 114.676,73.978 130.894,63.442C134.563,61.306 138.411,59.852 143.649,60.013L151.6,60.264C153.939,60.744 138.576,66.61 138.768,81.866C138.821,86.539 139.203,91.106 139.953,95.294L108.611,95.544Z" style="fill:#ff6694;fill-rule:nonzero;"/>
</svg>
